# xmcd
#
# Track frame offsets:
#	150
#	10750
#	20850
#	32945
#	42620
#	55902
#	69445
#	82915
#	95502
#	107407
#	121015
#	133647
#	146325
#	158340
#	172837
#	185222
#	198632
#	212655
#	226007
#	240860
#	253497
#	265965
#	278382
#	291205
#
# Disc length: 4053 seconds
#
# Revision: 2
# Processed by: cddbd v1.4PL0 Copyright (c) Steve Scherf et al.
# Submitted via: CDmax 1.8
#
DISCID=490fd318
DTITLE=Pee-Wee King - Pee-Wee King And His Golden West Cowboys, CD #2
DYEAR=1900
DGENRE=Country
TTITLE0=Gotta Climb Those Golden Stairs
TTITLE1=Everytime I Feel The Spirit
TTITLE2=Gospel Boogie
TTITLE3=Singin' As I Go
TTITLE4=Waltz Of The Alamo
TTITLE5=Whisper Waltz
TTITLE6=I Lost My Love (The Color Song)
TTITLE7=Bonaparte's Retreat
TTITLE8=Blue Grass Waltz
TTITLE9=Alabama Moon
TTITLE10=Tennessee Tears
TTITLE11=Get Together Polka
TTITLE12=The Nashville Waltz
TTITLE13=The Waltz Of Regret
TTITLE14=Tennessee Polka
TTITLE15=Lonesome Steel Guitar
TTITLE16=Cornbread, 'Lasses And Sassafras Tea
TTITLE17=Fire On The Mountain
TTITLE18=Shocking Rye Straw
TTITLE19=Billy In The Low Ground
TTITLE20=Devil's Dream
TTITLE21=Fisher's Hornpipe
TTITLE22=Sally Goodin
TTITLE23=Whistling Rufus
EXTD=
EXTT0=
EXTT1=
EXTT2=
EXTT3=
EXTT4=
EXTT5=
EXTT6=
EXTT7=
EXTT8=
EXTT9=
EXTT10=
EXTT11=
EXTT12=
EXTT13=
EXTT14=
EXTT15=
EXTT16=
EXTT17=
EXTT18=
EXTT19=
EXTT20=
EXTT21=
EXTT22=
EXTT23=
PLAYORDER=
